<?xml version="1.0" encoding="UTF-8" standalone="no"?>
<!DOCTYPE svg PUBLIC "-//W3C//DTD SVG 1.1//EN"
 "http://www.w3.org/Graphics/SVG/1.1/DTD/svg11.dtd">
<!-- Generated by graphviz version 15.1.0 (20260618.0150)
 -->
<!-- Title: G Pages: 1 -->
<svg style="background-color:#141414" width="483pt" height="188pt"
 viewBox="0.00 0.00 483.00 188.00" xmlns="http://www.w3.org/2000/svg" xmlns:xlink="http://www.w3.org/1999/xlink">
<g id="graph0" class="graph" transform="scale(1 1) rotate(0) translate(4 183.63)">
<title>G</title><style>.edge>path:hover{stroke-width:8}</style>
<polygon fill="#141414" stroke="none" points="-4,4 -4,-183.63 478.61,-183.63 478.61,4 -4,4"/>
<!-- boto3 -->
<g id="node1" class="node">
<title>boto3</title><style>.edge>path:hover{stroke-width:8}</style>
<ellipse fill="#c04040" stroke="#ffffff" cx="165.4" cy="-161.63" rx="27" ry="18"/>
<text xml:space="preserve" text-anchor="middle" x="165.4" y="-158.13" font-family="Helvetica,sans-Serif" font-size="10.00" fill="#e0e0e0">boto3</text>
</g>
<!-- src_s3_client -->
<g id="node7" class="node">
<title>src_s3_client</title><style>.edge>path:hover{stroke-width:8}</style>
<ellipse fill="#3838a8" stroke="#ffffff" cx="326.31" cy="-77.63" rx="43" ry="18"/>
<text xml:space="preserve" text-anchor="middle" x="326.31" y="-74.13" font-family="Helvetica,sans-Serif" font-size="10.00" fill="#e0e0e0">src.s3_client</text>
</g>
<!-- boto3&#45;&gt;src_s3_client -->
<g id="edge1" class="edge">
<title>boto3&#45;&gt;src_s3_client</title><style>.edge>path:hover{stroke-width:8}</style>
<path fill="none" stroke="#ffffff" d="M186.22,-150.12C192.76,-145.77 199.77,-140.45 205.35,-134.63 226.08,-112.99 211.39,-77.87 241.35,-77.63"/>
</g>
<!-- botocore -->
<g id="node2" class="node">
<title>botocore</title><style>.edge>path:hover{stroke-width:8}</style>
<ellipse fill="#3bce3b" stroke="#ffffff" cx="165.4" cy="-107.63" rx="32.17" ry="18"/>
<text xml:space="preserve" text-anchor="middle" x="165.4" y="-104.13" font-family="Helvetica,sans-Serif" font-size="10.00" fill="#e0e0e0">botocore</text>
</g>
<!-- botocore&#45;&gt;src_s3_client -->
<g id="edge2" class="edge">
<title>botocore&#45;&gt;src_s3_client</title><style>.edge>path:hover{stroke-width:8}</style>
<path fill="none" stroke="#ffffff" d="M187.48,-94.31C202.04,-86.37 222.15,-77.78 241.35,-77.63"/>
</g>
<!-- botocore_config -->
<g id="node3" class="node">
<title>botocore_config</title><style>.edge>path:hover{stroke-width:8}</style>
<ellipse fill="#49ac49" stroke="#ffffff" cx="165.4" cy="-48.63" rx="39.95" ry="22.63"/>
<text xml:space="preserve" text-anchor="middle" x="165.4" y="-51.13" font-family="Helvetica,sans-Serif" font-size="10.00" fill="#e0e0e0">botocore.</text>
<text xml:space="preserve" text-anchor="middle" x="165.4" y="-39.13" font-family="Helvetica,sans-Serif" font-size="10.00" fill="#e0e0e0">config</text>
</g>
<!-- botocore_config&#45;&gt;src_s3_client -->
<g id="edge3" class="edge">
<title>botocore_config&#45;&gt;src_s3_client</title><style>.edge>path:hover{stroke-width:8}</style>
<path fill="none" stroke="#ffffff" d="M193.91,-64.94C207.68,-71.61 224.89,-77.76 241.35,-77.63"/>
</g>
<!-- botocore_exceptions -->
<g id="node4" class="node">
<title>botocore_exceptions</title><style>.edge>path:hover{stroke-width:8}</style>
<ellipse fill="#40c040" stroke="#ffffff" cx="44.72" cy="-22.63" rx="44.72" ry="22.63"/>
<text xml:space="preserve" text-anchor="middle" x="44.72" y="-25.13" font-family="Helvetica,sans-Serif" font-size="10.00" fill="#e0e0e0">botocore.</text>
<text xml:space="preserve" text-anchor="middle" x="44.72" y="-13.13" font-family="Helvetica,sans-Serif" font-size="10.00" fill="#e0e0e0">exceptions</text>
</g>
<!-- botocore_exceptions&#45;&gt;botocore_config -->
<g id="edge4" class="edge">
<title>botocore_exceptions&#45;&gt;botocore_config</title><style>.edge>path:hover{stroke-width:8}</style>
<path fill="none" stroke="#ffffff" d="M86.23,-31.5C95.99,-33.64 106.51,-35.94 116.56,-38.15"/>
<polygon fill="#40c040" stroke="#ffffff" points="115.66,-41.53 126.18,-40.25 117.16,-34.69 115.66,-41.53"/>
</g>
<!-- botocore_exceptions&#45;&gt;src_s3_client -->
<g id="edge5" class="edge">
<title>botocore_exceptions&#45;&gt;src_s3_client</title><style>.edge>path:hover{stroke-width:8}</style>
<path fill="none" stroke="#ffffff" d="M242.35,-77.63C251.88,-77.55 262.01,-77.51 271.81,-77.5"/>
<polygon fill="#40c040" stroke="#ffffff" points="271.59,-81 281.59,-77.49 271.59,-74 271.59,-81"/>
<path fill="none" stroke="#ffffff" d="M83.23,-10.61C117.38,-2.01 168.02,4.69 205.35,-16.63 232.69,-32.24 209.87,-77.88 241.35,-77.63"/>
</g>
<!-- src_env_loader -->
<g id="node5" class="node">
<title>src_env_loader</title><style>.edge>path:hover{stroke-width:8}</style>
<ellipse fill="#4747c2" stroke="#ffffff" cx="326.31" cy="-23.63" rx="47.96" ry="18"/>
<text xml:space="preserve" text-anchor="middle" x="326.31" y="-20.13" font-family="Helvetica,sans-Serif" font-size="10.00" fill="#e0e0e0">src.env_loader</text>
</g>
<!-- src_main -->
<g id="node6" class="node">
<title>src_main</title><style>.edge>path:hover{stroke-width:8}</style>
<ellipse fill="#4646a4" stroke="#ffffff" cx="442.44" cy="-50.63" rx="32.17" ry="18"/>
<text xml:space="preserve" text-anchor="middle" x="442.44" y="-47.13" font-family="Helvetica,sans-Serif" font-size="10.00" fill="#e0e0e0">src.main</text>
</g>
<!-- src_env_loader&#45;&gt;src_main -->
<g id="edge6" class="edge">
<title>src_env_loader&#45;&gt;src_main</title><style>.edge>path:hover{stroke-width:8}</style>
<path fill="none" stroke="#ffffff" d="M367.55,-33.15C378.5,-35.74 390.36,-38.54 401.31,-41.14"/>
<polygon fill="#4747c2" stroke="#ffffff" points="400.31,-44.49 410.84,-43.39 401.92,-37.68 400.31,-44.49"/>
</g>
<!-- src_s3_client&#45;&gt;src_main -->
<g id="edge7" class="edge">
<title>src_s3_client&#45;&gt;src_main</title><style>.edge>path:hover{stroke-width:8}</style>
<path fill="none" stroke="#ffffff" d="M364.36,-68.86C376.1,-66.08 389.13,-63 401.09,-60.17"/>
<polygon fill="#3838a8" stroke="#ffffff" points="401.75,-63.61 410.68,-57.9 400.14,-56.8 401.75,-63.61"/>
</g>
</g>
</svg>

